<svg xmlns="http://www.w3.org/2000/svg" width="35.3" height="36" viewBox="0 0 35.3 36"><g transform="translate(-1181 -33)"><path d="M1207.2,69a2.477,2.477,0,1,1,.2,0Zm-19.448-2.68a2.68,2.68,0,1,1,2.68,2.68A2.68,2.68,0,0,1,1187.75,66.32Zm3.8-5.634a1.183,1.183,0,0,1-1.144-.867l-4.834-17.456h-3.393a1.182,1.182,0,1,1,0-2.364h4.281a1.184,1.184,0,0,1,1.144.867l4.833,17.455h13.178L1210,48.274h-14.6a1.182,1.182,0,1,1,0-2.364h16.413a1.176,1.176,0,0,1,.986.532,1.194,1.194,0,0,1,.1,1.123l-5.405,12.412a1.186,1.186,0,0,1-1.085.709Z" fill="#222"/><text transform="translate(1216.3 45)" fill="#fff" font-size="12" font-family="Lato-Bold, Lato" font-weight="700" letter-spacing="0.025em"><tspan x="-6.96" y="0">2</tspan></text></g></svg>